# xmcd
#
# Track frame offsets: 
#        150
#        19459
#        39125
#        68345
#        93182
#        114354
#        138070
#        166936
#        193371
#        198768
#        226794
#
# Disc length: 3819 seconds
#
# Revision: 0
# Processed by: cddbd v1.5.1PL2 Copyright (c) Steve Scherf et al.
# Submitted via: ExactAudioCopy v0.95b1
#
DISCID=7d0ee90b
DTITLE=Robert Cray - Hamburg 1991
DYEAR=1900
DGENRE=
TTITLE0=Phone Booth
TTITLE1=I Guess I Showed Her
TTITLE2=These Things
TTITLE3=My Problem
TTITLE4=Bouncin' Back
TTITLE5=The Forecast
TTITLE6=Where Do I Go From Here
TTITLE7=Move A Mountain
TTITLE8=Outro
TTITLE9=John Lee Hooker and Robert Cray - Mr Lucky
TTITLE10=John Lee Hooker and Robert Cray - Boogie Chillun
EXTD=
EXTT0=
EXTT1=
EXTT2=
EXTT3=
EXTT4=
EXTT5=
EXTT6=
EXTT7=
EXTT8=
EXTT9=
EXTT10=
PLAYORDER=
